# xmcd
#
# Track frame offsets: 
#        150
#        12901
#        31277
#        45352
#        64186
#        73439
#        89345
#        106041
#        120749
#        139346
#
# Disc length: 2055 seconds
#
# Revision: 2
# Processed by: cddbd v1.5.2PL0 Copyright (c) Steve Scherf et al.
# Submitted via: ExactAudioCopy v0.95a4
#
DISCID=8708050a
DTITLE=Billy Joe Shaver - I'm Just An Old Chunk Of Coal
DYEAR=1981
DGENRE=
TTITLE0=Fit To Kill And Going Out In Style
TTITLE1=Blue Texas Waltz
TTITLE2=Saturday Night
TTITLE3=Ragged Old Truck
TTITLE4=I'm Just An Old Chunk Of Coal (But I'm Gonna Be A Diamond Some
TTITLE4=day)
TTITLE5=When The Word Was Thunderbird
TTITLE6=(We Are) The Cowboys
TTITLE7=Mexico
TTITLE8=It Ain't Nothing New Babe
TTITLE9=The Road
EXTD=
EXTT0=
EXTT1=
EXTT2=
EXTT3=
EXTT4=
EXTT5=
EXTT6=
EXTT7=
EXTT8=
EXTT9=
PLAYORDER=
